<svg width="13" height="12" viewBox="0 0 13 12" fill="none" xmlns="http://www.w3.org/2000/svg">
<path d="M12.5 8.94667V11.304C12.5001 11.4728 12.4361 11.6353 12.3211 11.7588C12.206 11.8823 12.0484 11.9575 11.88 11.9693C11.5887 11.9893 11.3507 12 11.1667 12C5.27533 12 0.5 7.22467 0.5 1.33333C0.5 1.14933 0.51 0.911334 0.530667 0.62C0.542482 0.451629 0.617721 0.294007 0.741202 0.178939C0.864684 0.0638712 1.02722 -7.62887e-05 1.196 1.71053e-07H3.55333C3.63603 -8.35563e-05 3.7158 0.0305727 3.77715 0.0860136C3.83851 0.141455 3.87706 0.217722 3.88533 0.3C3.90067 0.453334 3.91467 0.575333 3.928 0.668C4.06049 1.59262 4.332 2.49189 4.73333 3.33533C4.79667 3.46867 4.75533 3.628 4.63533 3.71333L3.19667 4.74133C4.0763 6.79097 5.7097 8.42436 7.75933 9.304L8.786 7.868C8.82796 7.80933 8.88919 7.76725 8.959 7.7491C9.02881 7.73095 9.10277 7.73787 9.168 7.76867C10.0113 8.16924 10.9104 8.44008 11.8347 8.572C11.9273 8.58533 12.0493 8.6 12.2013 8.61467C12.2835 8.62309 12.3596 8.66171 12.4149 8.72305C12.4702 8.78439 12.5008 8.86408 12.5007 8.94667H12.5Z" fill="#FF4D4F"/>
</svg>
